<?xml version="1.0" encoding="utf-8"?>
<!-- Generator: Adobe Illustrator 22.0.0, SVG Export Plug-In . SVG Version: 6.00 Build 0)  -->
<svg version="1.1" id="Capa_1" xmlns="http://www.w3.org/2000/svg" xmlns:xlink="http://www.w3.org/1999/xlink" x="0px" y="0px"
	 viewBox="0 0 159.5 169.2" style="enable-background:new 0 0 159.5 169.2;" xml:space="preserve">
<style type="text/css">
	.st0{fill:#FFFFFF;}
</style>
<path class="st0" d="M83.7,160.2c-2.7,0-5.4-0.2-8.1-0.4c-6.5-0.7-12.8-2.2-18.7-4.4c2.7-0.4,3.6-2.6,3.6-4.6c0-2.3,0-8.6,0-16.5
	c-26.5,5.8-32-12.5-32-12.5c-4.3-11-10.6-13.9-10.6-13.9c-8.6-5.9,0.6-5.8,0.6-5.8c9.6,0.7,14.6,9.8,14.6,9.8
	c8.5,14.5,22.3,10.3,27.7,7.9c0.9-6.2,3.3-10.4,6.1-12.7C45.9,104.7,23.6,96.5,23.6,60c0-10.4,3.7-18.9,9.8-25.6
	c-1-2.4-4.3-12.1,0.9-25.2c0,0,8-2.6,26.2,9.8c7.6-2.1,15.7-3.2,23.8-3.2c8.1,0,16.2,1.1,23.8,3.2c18.2-12.3,26.2-9.8,26.2-9.8
	c5.2,13.1,1.9,22.8,0.9,25.2c6.1,6.7,9.8,15.2,9.8,25.6c0,36.6-22.3,44.6-43.5,47c3.4,2.9,6.5,8.7,6.5,17.5c0,11.9,0,23.2,0,26.4
	c0,1.7,0.7,3.5,2.5,4.2C102.3,158.4,93.2,160.2,83.7,160.2L83.7,160.2z"/>
</svg>
